<svg height="500" viewBox="0 0 500 500" width="500" xmlns="http://www.w3.org/2000/svg"><rect fill="#121212" height="500" rx="59.07" width="500"/><g fill="#fbfbe7"><path d="m86.15 346.88v-2.26l30.48-1.88v-265.27l-30.48-1.5v-2.26l76.39-1.5v270.55l30.48 1.88v2.26h-106.86z"/><path d="m321.7 425.16c-21.45 0-37.63-8.65-48.92-30.48l-41.39 26.72h-2.26v-269.42l-30.48-1.5v-2.26l76.38-1.5v104.61c11.67-19.19 27.09-26.34 48.16-26.34 39.13 0 87.3 34.24 87.3 98.21 0 67.35-48.16 101.97-88.8 101.97zm-3.77-196.04c-18.06 0-34.99 11.67-42.9 31.23v129.44c7.9 19.57 24.83 31.23 42.9 31.23 31.61 0 41.77-18.44 41.77-97.83 0-74.13-10.16-94.07-41.77-94.07z"/></g></svg>