<?xml version="1.0" encoding="UTF-8"?><svg xmlns="http://www.w3.org/2000/svg" width="1841.25" height="1174.12" viewBox="0 0 1841.25 1174.12"><g id="Layer_1"><path d="m365.05,907.28c-60.84,0-106.74-24.55-138.76-86.46l-117.41,75.79h-6.4V132.35l-86.46-4.27v-6.4l216.68-4.27v296.74c33.09-54.44,76.85-74.72,136.63-74.72,111.01,0,247.64,97.13,247.64,278.59,0,191.06-136.63,289.26-251.91,289.26Zm-10.67-556.11c-51.24,0-99.27,33.09-121.68,88.59v367.19c22.42,55.5,70.45,88.59,121.68,88.59,89.66,0,118.48-52.3,118.48-277.52,0-210.28-28.82-266.85-118.48-266.85Z" style="fill:#fdfbe4;"/><path d="m961.71,907.28c-144.1,0-270.05-106.74-270.05-283.93s125.95-283.93,270.05-283.93,268.98,108.87,268.98,283.93-127.02,283.93-268.98,283.93Zm0-558.25c-93.93,0-125.95,48.03-125.95,274.32s32.02,274.32,125.95,274.32,124.88-48.03,124.88-274.32-32.02-274.32-124.88-274.32Z" style="fill:#fdfbe4;"/><path d="m1648.06,350.1h191.06v6.4l-91.8,71.52-262.58,735.44h-135.56v-6.4l193.2-188.93,25.62-71.52h-80.05l-192.13-528.36-62.98-11.74v-6.4h302.07v6.4l-102.47,11.74,163.31,451.51,140.9-391.74-88.59-71.52v-6.4Z" style="fill:#fdfbe4;"/></g><g id="Layer_2"><polygon points="1295.72 368.4 1432.71 368.69 1495.77 543.2 1295.72 368.4" style="fill:#b2b1a6;"/><polygon points="102.47 132.35 232.65 132.63 232.65 245.88 102.47 132.35" style="fill:#b2b1a6;"/></g></svg>