<?xml version="1.0" encoding="UTF-8"?><svg xmlns="http://www.w3.org/2000/svg" width="2000" height="1500" viewBox="0 0 2000 1500"><g id="Layer_1"><path d="M725.95,1177.23c-48.38,0-84.88-19.52-110.35-68.76l-93.37,60.27h-5.09v-607.77l-68.76-3.4v-5.09l172.32-3.4v235.98c26.31-43.29,61.12-59.42,108.65-59.42,88.28,0,196.93,77.25,196.93,221.55,0,151.94-108.65,230.04-200.33,230.04ZM717.47,734.98c-40.74,0-78.94,26.31-96.77,70.45v292c17.83,44.14,56.02,70.45,96.77,70.45,71.3,0,94.22-41.59,94.22-220.7,0-167.22-22.92-212.21-94.22-212.21Z" style="fill:#fdfbe4; stroke-width:0px;"/><path d="M1200.45,1177.23c-114.59,0-214.76-84.88-214.76-225.79s100.16-225.79,214.76-225.79,213.91,86.58,213.91,225.79-101.01,225.79-213.91,225.79ZM1200.45,733.28c-74.7,0-100.16,38.2-100.16,218.15s25.47,218.15,100.16,218.15,99.32-38.2,99.32-218.15-25.47-218.15-99.32-218.15Z" style="fill:#fdfbe4; stroke-width:0px;"/><path d="M1746.27,734.13h151.94v5.09l-73,56.87-208.82,584.86h-107.8v-5.09l153.64-150.25,20.37-56.87h-63.66l-152.79-420.18-50.08-9.34v-5.09h240.22v5.09l-81.49,9.34,129.87,359.06,112.05-311.53-70.45-56.87v-5.09Z" style="fill:#fdfbe4; stroke-width:0px;"/><path d="M65.23,697.72v-5.09l68.76-4.24V89.95l-68.76-3.39v-5.09l172.32-3.4v610.32l68.76,4.24v5.09H65.23Z" style="fill:#fdfbe4; stroke-width:0px;"/><path d="M567.74,706.21c-114.59,0-214.76-84.88-214.76-225.79s100.16-225.79,214.76-225.79,213.91,86.58,213.91,225.79-101.01,225.79-213.91,225.79ZM567.74,262.26c-74.7,0-100.16,38.2-100.16,218.15s25.47,218.15,100.16,218.15,99.31-38.2,99.31-218.15-25.47-218.15-99.31-218.15Z" style="fill:#fdfbe4; stroke-width:0px;"/><path d="M918.31,668.01l-51.78,29.71h-5.09l-20.37-180.8,8.49-1.7c34.8,129.02,93.37,182.5,173.16,182.5,46.69,0,75.55-29.71,75.55-68.76,0-128.18-240.22-81.49-240.22-248.71,0-69.61,51.78-125.63,137.51-125.63,29.71,0,58.57,9.34,86.58,33.95l54.33-25.47h5.09l11.04,148.55-8.49,1.7c-36.5-111.2-94.22-151.09-147.7-151.09-40.75,0-67.91,28.86-67.91,65.36,0,119.69,240.22,82.34,240.22,248.71,0,73.85-57.72,129.87-140.91,129.87-42.44,0-74.7-9.34-109.5-38.2Z" style="fill:#fdfbe4; stroke-width:0px;"/><path d="M1415.74,706.21c-78.94,0-139.21-42.44-139.21-157.04v-277.57h-62.81v-8.49h62.81v-50.93l98.47-108.65h5.09v159.58h119.69v8.49h-119.69v328.5c0,61.97,16.13,92.52,56.02,92.52,33.1,0,54.33-30.56,65.36-74.7l7.64,2.55c-12.73,48.38-33.95,85.73-93.37,85.73Z" style="fill:#fdfbe4; stroke-width:0px;"/></g><g id="Layer_2"><polygon points="1466.08 748.69 1575.02 748.92 1625.16 887.7 1466.08 748.69" style="fill:#b2b1a6; stroke-width:0px;"/><polygon points="517.14 560.97 620.66 561.19 620.66 651.25 517.14 560.97" style="fill:#b2b1a6; stroke-width:0px;"/><polygon points="1276.77 271.38 1380.09 271.6 1380.09 361.66 1276.77 271.38" style="fill:#b2b1a6; stroke-width:0px;"/><polygon points="133.99 89.94 237.31 90.16 237.31 180.23 133.99 89.94" style="fill:#b2b1a6; stroke-width:0px;"/></g></svg>