<?xml version="1.0" encoding="UTF-8"?><svg xmlns="http://www.w3.org/2000/svg" width="1851.91" height="1174.12" viewBox="0 0 1851.91 1174.12"><g id="Layer_1"><path d="m21.35,896.61v-6.4l86.46-5.34V132.35l-86.46-4.27v-6.4l216.68-4.27v767.46l86.46,5.34v6.4H21.35Z" style="fill:#fdfbe4;"/><path d="m653.24,907.28c-144.1,0-270.05-106.74-270.05-283.93s125.95-283.93,270.05-283.93,268.98,108.87,268.98,283.93-127.02,283.93-268.98,283.93Zm0-558.25c-93.93,0-125.95,48.03-125.95,274.32s32.02,274.32,125.95,274.32,124.89-48.03,124.89-274.32-32.02-274.32-124.89-274.32Z" style="fill:#fdfbe4;"/><path d="m1094.07,859.25l-65.11,37.36h-6.4l-25.62-227.36,10.67-2.13c43.76,162.24,117.41,229.49,217.75,229.49,58.71,0,95-37.36,95-86.46,0-161.18-302.07-102.47-302.07-312.75,0-87.53,65.11-157.97,172.92-157.97,37.36,0,73.65,11.74,108.88,42.7l68.31-32.02h6.4l13.88,186.79-10.67,2.13c-45.9-139.83-118.48-190-185.73-190-51.23,0-85.39,36.29-85.39,82.19,0,150.5,302.07,103.54,302.07,312.75,0,92.86-72.58,163.31-177.19,163.31-53.37,0-93.93-11.74-137.69-48.03Z" style="fill:#fdfbe4;"/><path d="m1719.56,907.28c-99.27,0-175.05-53.37-175.05-197.47v-349.04h-78.99v-10.67h78.99v-64.04l123.82-136.63h6.4v200.67h150.5v10.67h-150.5v413.08c0,77.92,20.28,116.35,70.45,116.35,41.63,0,68.31-38.43,82.19-93.93l9.61,3.2c-16.01,60.84-42.7,107.81-117.41,107.81Z" style="fill:#fdfbe4;"/></g><g id="Layer_2"><polygon points="1544.8 360.5 1674.73 360.77 1674.73 474.02 1544.8 360.5" style="fill:#b2b1a6;"/><polygon points="107.81 132.35 237.73 132.63 237.73 245.88 107.81 132.35" style="fill:#b2b1a6;"/></g></svg>